<?xml version="1.0" standalone="no"?>
<!DOCTYPE svg PUBLIC "-//W3C//DTD SVG 20010904//EN"
 "http://www.w3.org/TR/2001/REC-SVG-20010904/DTD/svg10.dtd">
<svg version="1.0" xmlns="http://www.w3.org/2000/svg"
 width="300.000000pt" height="145.000000pt" viewBox="0 0 300.000000 145.000000"
 preserveAspectRatio="xMidYMid meet">

<g transform="translate(0.000000,145.000000) scale(0.100000,-0.100000)"
fill="#000000" stroke="none">
<path d="M1556 1331 c-93 -106 -108 -132 -85 -147 11 -6 -47 -63 -65 -64 -5 0
-46 34 -92 76 l-83 75 -28 -50 c-15 -28 -30 -51 -33 -51 -3 0 -4 20 -2 45 3
33 0 45 -9 45 -8 0 -68 -18 -134 -39 -117 -39 -120 -41 -127 -73 -4 -18 -4
-52 -1 -75 5 -39 8 -42 29 -37 22 6 24 3 24 -29 0 -35 -1 -36 -29 -26 -35 12
-132 -3 -168 -26 l-23 -15 0 50 c0 81 -51 158 -135 203 -35 19 -55 22 -165 21
-112 0 -133 -3 -200 -28 -59 -22 -180 -84 -198 -101 -4 -3 37 -77 88 -160 35
-56 44 -63 79 -54 13 4 58 -86 205 -413 l34 -76 101 31 c56 17 101 34 101 38
0 3 -15 66 -34 138 -31 122 -32 132 -16 146 24 22 27 20 32 -30 17 -150 194
-214 333 -120 l35 24 0 -38 c0 -21 2 -40 5 -43 3 -2 44 1 93 8 48 8 90 14 95
14 4 0 7 38 7 85 0 47 2 85 5 85 3 0 85 -40 183 -89 222 -111 220 -110 214
-71 -2 17 -1 59 3 94 l6 64 37 7 c20 4 56 15 79 25 l42 19 -2 -52 -2 -51 75
-12 c41 -7 90 -13 108 -13 29 -1 32 2 32 29 0 43 13 37 39 -17 l23 -48 16 30
16 30 7 -25 c4 -14 7 -37 8 -51 1 -25 4 -27 109 -43 59 -10 114 -19 124 -22
14 -4 15 1 11 34 -5 39 -5 39 33 46 22 3 49 9 62 12 20 6 22 3 22 -34 0 -45 1
-45 102 -57 56 -7 57 -8 60 -42 3 -34 5 -36 78 -59 41 -13 80 -24 85 -24 13 0
232 656 223 666 -8 7 -194 54 -215 54 -7 0 -13 -8 -13 -17 0 -10 -4 -24 -9
-32 -7 -11 -12 -4 -21 25 l-12 40 -130 28 c-71 15 -131 26 -133 24 -4 -4 -8
-66 -6 -109 1 -28 6 -38 21 -42 11 -3 20 -10 20 -16 0 -7 -8 -7 -26 -1 -49 19
-113 11 -195 -24 -13 -6 -19 12 -35 119 l-18 125 -92 0 c-72 0 -93 -3 -98 -15
-4 -12 -25 -15 -100 -15 l-94 0 -7 -46 c-10 -69 -14 -76 -32 -59 -34 34 -81
64 -122 78 -44 14 -44 15 -20 27 13 7 45 26 71 43 l47 29 -52 79 c-29 43 -55
79 -58 79 -3 0 -50 -49 -103 -109z m126 -1 l27 -39 -86 -41 c-96 -45 -93 -44
-93 -30 0 11 111 150 120 149 3 0 17 -17 32 -39z m510 -258 l19 -122 -26 -43
c-56 -96 -41 -191 42 -266 25 -23 43 -44 40 -47 -3 -3 -33 -2 -67 2 -73 8 -71
6 -90 146 -8 54 -16 95 -19 92 -3 -3 -15 -31 -27 -62 l-22 -57 -38 80 -37 80
-13 -65 c-7 -36 -13 -75 -14 -87 0 -32 -14 -36 -76 -23 l-56 12 6 51 c5 38 15
60 37 82 l29 31 -21 20 -20 21 20 120 c12 66 21 123 21 127 0 3 29 6 65 6 59
0 65 -2 69 -22 3 -13 11 -52 18 -88 l13 -65 19 103 18 103 46 -3 46 -3 18
-123z m-1078 87 c3 -17 6 -53 6 -80 0 -27 3 -49 8 -49 4 1 31 37 61 81 l54 79
26 -22 c65 -56 91 -83 91 -91 0 -5 -37 -47 -81 -93 -80 -81 -81 -84 -58 -93
112 -43 132 -54 170 -95 30 -33 56 -50 94 -62 l53 -17 4 -54 c1 -29 2 -53 0
-53 -1 0 -88 43 -192 95 -104 52 -194 95 -200 95 -6 0 -10 -41 -10 -105 l0
-105 -34 0 c-19 0 -41 -3 -49 -6 -24 -9 -32 77 -11 118 27 52 23 136 -10 192
-21 36 -29 66 -34 129 -7 79 -8 82 -30 79 -20 -3 -23 0 -20 19 2 19 16 27 73
45 39 12 73 23 76 23 4 1 9 -13 13 -30z m-531 -22 c58 -34 88 -77 95 -133 8
-76 -54 -181 -146 -246 l-21 -14 30 -115 c16 -63 32 -122 35 -131 4 -14 -6
-20 -51 -33 -31 -9 -58 -15 -59 -13 -1 1 -52 113 -113 248 -109 244 -114 252
-154 236 -12 -5 -24 5 -44 41 -16 26 -35 58 -42 70 -14 21 -12 23 59 57 103
49 177 66 279 63 72 -3 93 -7 132 -30z m1094 -12 c40 -17 73 -43 73 -57 0 -5
-37 -47 -81 -93 -67 -70 -78 -85 -60 -85 26 0 58 15 86 41 19 17 21 17 64 -23
l44 -41 -24 -20 c-41 -34 -126 -68 -184 -74 -163 -17 -270 139 -182 267 57 84
175 122 264 85z m946 -19 l52 -11 27 -125 c15 -69 29 -132 31 -140 1 -8 16 39
31 105 16 66 30 123 32 126 3 6 124 -18 132 -26 5 -4 -178 -557 -187 -567 -3
-4 -25 -2 -47 3 -37 10 -42 15 -48 47 -3 21 -6 96 -7 167 0 72 -3 125 -5 119
-3 -6 -13 -59 -23 -118 -10 -58 -21 -109 -24 -112 -3 -4 -27 -3 -52 0 -44 7
-45 8 -45 45 0 27 7 44 24 60 68 64 86 201 35 272 -19 27 -23 44 -21 82 3 37
1 47 -11 47 -20 0 -30 17 -23 36 6 16 18 15 129 -10z m-827 -121 c-6 -22 -9
-25 -22 -14 -13 10 -12 14 2 30 21 24 28 18 20 -16z m680 -24 c35 -21 64 -75
64 -118 -1 -38 -31 -102 -66 -137 -106 -106 -274 -56 -274 82 0 73 43 139 115
176 42 22 123 20 161 -3z m-1146 -30 c0 -24 -3 -28 -20 -24 -24 6 -25 11 -3
35 21 24 23 23 23 -11z m-376 -9 c70 -41 86 -151 33 -231 -102 -154 -319 -121
-319 48 0 148 164 252 286 183z"/>
<path d="M443 1012 c-9 -6 -6 -29 14 -92 14 -47 29 -89 35 -95 6 -7 23 5 49
32 48 52 54 105 16 141 -24 22 -89 30 -114 14z m85 -44 c16 -16 15 -53 -2 -67
-11 -10 -17 -3 -29 34 -15 42 -15 45 2 45 9 0 22 -5 29 -12z"/>
<path d="M1509 1041 c-35 -36 -39 -87 -9 -122 l20 -24 45 50 c25 28 53 61 62
74 16 22 16 24 -2 37 -33 24 -83 17 -116 -15z m49 -51 c-32 -38 -33 -39 -36
-14 -4 32 14 54 45 54 24 0 24 0 -9 -40z"/>
<path d="M2335 938 c-49 -26 -59 -77 -25 -120 24 -31 65 -40 106 -23 34 14 61
64 49 92 -6 16 -8 16 -16 -4 -17 -45 -99 -37 -99 9 0 12 7 30 17 40 13 14 13
18 2 18 -8 0 -23 -6 -34 -12z"/>
<path d="M823 895 c-59 -25 -69 -80 -24 -126 20 -20 39 -29 61 -29 41 0 90 47
90 86 l0 27 -23 -21 c-55 -52 -131 4 -80 60 19 21 18 21 -24 3z"/>
<path d="M1721 513 c-16 -13 -24 -33 -28 -75 -5 -46 -9 -58 -23 -58 -10 0 -23
-7 -30 -15 -18 -21 -40 4 -40 47 0 39 -15 58 -45 58 -31 0 -45 -19 -45 -60 0
-44 -8 -54 -27 -35 -19 20 -31 19 -77 -4 -29 -15 -42 -17 -56 -9 -28 18 -66 1
-99 -44 -61 -83 -62 -160 -2 -173 17 -3 35 -3 42 0 6 4 63 6 127 5 64 -1 124
-1 132 -1 34 1 126 9 135 11 6 2 23 -2 38 -8 17 -7 35 -9 45 -3 9 5 26 5 37 1
52 -19 75 15 75 112 0 87 -17 118 -66 118 -25 0 -25 1 -19 55 6 46 4 59 -10
75 -22 25 -37 25 -64 3z m45 -105 c-7 -91 -7 -92 13 -74 52 47 91 -9 75 -106
-7 -43 -13 -53 -29 -53 -18 0 -20 6 -17 68 3 43 0 67 -7 67 -18 0 -43 -60 -39
-98 2 -28 -1 -37 -14 -40 -12 -2 -19 5 -24 22 -5 22 -8 24 -21 11 -18 -18 -53
-28 -84 -23 -30 4 -37 53 -16 95 20 37 67 84 78 77 16 -10 9 -35 -16 -57 -14
-12 -28 -37 -31 -54 -6 -28 -4 -33 14 -33 11 0 25 6 32 14 6 8 18 12 26 9 12
-4 14 16 14 119 0 125 6 148 38 148 12 0 14 -15 8 -92z m-193 -16 c-1 -31 2
-42 13 -42 18 0 18 -27 0 -37 -10 -6 -16 -29 -18 -73 -2 -52 -6 -65 -20 -68
-16 -3 -18 5 -18 59 0 45 -4 65 -16 74 -15 10 -15 13 0 27 9 10 16 33 16 56 0
43 7 54 30 49 11 -2 15 -14 13 -45z m-85 -77 c23 -68 0 -167 -32 -135 -4 4
-21 4 -37 -2 -32 -11 -59 -5 -59 12 0 6 20 33 45 59 43 46 56 71 36 71 -5 0
-17 -7 -26 -16 -13 -13 -19 -14 -28 -5 -9 10 -6 18 17 37 40 35 68 28 84 -21z
m-151 19 c3 -9 -6 -27 -26 -46 -17 -17 -31 -36 -31 -43 0 -8 -3 -20 -6 -29 -8
-21 29 -22 46 -1 16 20 40 19 40 -1 0 -17 -57 -44 -95 -44 -32 0 -41 21 -27
68 12 38 66 112 83 112 5 0 12 -7 16 -16z m38 -74 c-5 -8 -55 -11 -55 -2 0 2
8 11 17 18 18 13 48 0 38 -16z m307 -2 c-7 -7 -12 -8 -12 -2 0 14 12 26 19 19
2 -3 -1 -11 -7 -17z"/>
<path d="M1426 231 c-11 -12 -16 -24 -12 -28 9 -9 39 22 34 37 -2 7 -10 4 -22
-9z"/>
<path d="M1973 468 c-17 -22 -43 -80 -43 -96 0 -9 7 -23 16 -33 14 -15 14 -20
0 -54 -20 -48 -20 -66 1 -110 20 -42 50 -52 91 -31 28 15 31 14 44 -6 12 -18
25 -21 87 -23 40 -2 75 -6 78 -9 12 -12 52 -6 67 10 12 11 16 35 16 88 0 92
-21 127 -78 126 -154 -1 -230 16 -216 50 15 37 15 52 0 75 -18 27 -48 33 -63
13z m47 -42 c0 -14 -11 -38 -24 -53 -22 -25 -25 -26 -31 -10 -9 22 21 87 40
87 9 0 15 -10 15 -24z m30 -106 c30 -30 25 -58 -14 -81 -22 -13 -33 -26 -29
-34 5 -15 35 -6 48 15 9 15 37 12 33 -2 -6 -19 -68 -58 -90 -58 -10 0 -21 8
-24 18 -3 9 -10 25 -15 35 -6 11 -7 23 -1 30 5 7 12 25 16 42 14 57 41 70 76
35z m90 -20 c0 -6 8 -5 20 2 15 10 25 10 38 2 9 -6 32 -9 51 -6 44 6 51 -7 51
-96 0 -70 -1 -73 -22 -70 -22 3 -23 7 -20 71 2 39 0 67 -6 67 -19 0 -31 -27
-34 -80 -2 -41 -7 -55 -18 -55 -12 0 -16 15 -18 68 -2 37 -7 67 -12 67 -17 0
-32 -42 -28 -83 3 -36 0 -42 -17 -42 -18 0 -21 9 -26 70 -3 39 -3 76 -1 83 5
14 42 16 42 2z"/>
<path d="M2017 294 c-4 -4 -7 -14 -7 -23 0 -11 3 -12 11 -4 6 6 10 16 7 23 -2
6 -7 8 -11 4z"/>
<path d="M2847 429 c7 -7 15 -10 18 -7 3 3 -2 9 -12 12 -14 6 -15 5 -6 -5z"/>
<path d="M948 403 c-9 -3 -20 -13 -23 -24 -7 -20 -25 -27 -25 -9 0 6 -13 10
-29 10 -35 0 -61 -31 -61 -72 0 -25 -3 -27 -30 -22 -43 9 -74 -2 -90 -31 -7
-14 -21 -25 -30 -25 -10 0 -39 -9 -65 -21 -25 -11 -49 -18 -52 -15 -4 3 10 21
30 40 42 39 48 73 17 101 -20 18 -21 18 -48 -2 -58 -42 -132 -187 -132 -257 0
-67 61 -85 137 -41 34 21 47 24 63 15 15 -8 26 -7 43 2 12 7 39 13 60 13 21 1
49 10 65 22 24 18 30 19 47 7 22 -16 54 -10 73 14 9 12 15 13 24 4 13 -13 51
-16 62 -4 4 4 17 8 29 8 67 5 121 14 130 23 16 16 20 102 8 149 -7 25 -22 49
-36 58 -21 14 -26 14 -54 0 -41 -21 -51 -20 -51 7 0 38 -25 58 -62 50z m32
-63 c0 -29 4 -40 15 -40 19 0 19 -14 0 -30 -9 -7 -15 -35 -17 -73 -2 -50 -6
-62 -20 -65 -16 -3 -18 5 -18 56 0 50 -3 60 -19 65 -32 8 -40 -6 -43 -73 -2
-52 -6 -65 -20 -68 -16 -3 -18 5 -18 56 0 46 -4 61 -16 66 -15 6 -15 8 -1 24
8 9 17 35 19 57 2 28 8 41 21 43 13 3 17 -3 17 -29 0 -33 24 -61 47 -52 8 3
13 22 13 47 0 45 5 56 27 56 9 0 13 -13 13 -40z m135 -34 c11 -17 15 -42 13
-88 -3 -62 -3 -63 -33 -65 -16 -1 -45 -5 -62 -9 -29 -5 -33 -4 -33 15 0 12 20
41 45 67 47 47 53 78 9 50 -29 -20 -34 -20 -34 -2 0 16 48 55 67 56 7 0 20
-11 28 -24z m-535 -9 c0 -12 -9 -28 -21 -35 -11 -7 -34 -41 -50 -75 -31 -66
-38 -117 -16 -117 16 0 91 53 103 72 6 10 5 10 -9 0 -16 -14 -37 -9 -37 8 0
11 100 64 107 56 10 -9 -12 -129 -24 -134 -8 -2 -13 6 -13 23 l0 27 -39 -31
c-22 -17 -56 -38 -77 -47 -35 -15 -38 -14 -57 5 -19 18 -19 24 -8 63 25 85
103 208 131 208 6 0 10 -10 10 -23z m210 -47 c13 -13 20 -33 20 -56 0 -66 -90
-130 -128 -92 -20 20 -14 60 18 116 33 57 56 66 90 32z m-260 -125 c0 -8 -4
-15 -10 -15 -5 0 -10 7 -10 15 0 8 5 15 10 15 6 0 10 -7 10 -15z"/>
<path d="M1061 203 c-12 -14 -19 -28 -17 -30 9 -9 46 23 46 39 0 24 -5 23 -29
-9z"/>
<path d="M732 205 c-16 -35 -16 -88 1 -83 20 7 38 55 31 83 -8 32 -18 32 -32
0z"/>
<path d="M2507 352 c-10 -10 -17 -29 -17 -43 0 -22 -4 -24 -50 -24 -63 0 -89
-22 -74 -62 8 -22 6 -35 -9 -60 -20 -35 -16 -67 11 -78 9 -4 46 -14 82 -21 68
-13 131 -28 165 -38 45 -14 50 3 47 151 -4 147 -9 163 -53 165 -13 1 -33 8
-44 15 -26 18 -39 16 -58 -5z m47 -21 c3 -5 7 -66 10 -135 3 -125 3 -127 -18
-124 -19 3 -21 11 -28 113 -3 61 -4 120 -1 133 5 22 27 30 37 13z m70 -23 c3
-7 7 -68 10 -136 5 -123 5 -123 -17 -120 -21 3 -22 10 -29 118 -4 63 -5 123
-2 133 6 20 33 23 38 5z m-149 -58 c12 -14 20 -41 23 -81 5 -65 -5 -86 -35
-74 -10 4 -34 8 -53 9 -28 1 -36 5 -38 23 -3 17 8 30 42 54 49 35 51 54 4 44
-25 -6 -29 -4 -26 11 2 15 25 27 59 33 3 1 14 -8 24 -19z"/>
<path d="M2424 149 c-19 -21 -19 -21 6 -18 14 2 26 12 28 22 5 23 -11 22 -34
-4z"/>
<path d="M2717 302 c-13 -14 -17 -39 -17 -107 0 -49 -5 -104 -12 -122 -15 -41
3 -64 51 -65 44 -1 68 23 53 56 -7 17 -8 52 -2 117 5 52 10 97 10 101 0 13
-32 38 -49 38 -10 0 -25 -8 -34 -18z m51 -14 c7 -9 7 -41 2 -95 -10 -92 -14
-105 -35 -96 -19 7 -22 172 -3 191 15 15 23 15 36 0z m-14 -214 c9 -3 16 -15
16 -25 0 -14 -7 -19 -30 -19 -22 0 -30 5 -30 18 0 30 13 38 44 26z"/>
<path d="M2846 258 c3 -4 9 -8 15 -8 5 0 9 4 9 8 0 5 -7 9 -15 9 -8 0 -12 -4
-9 -9z"/>
</g>
</svg>
