<?xml version="1.0" encoding="UTF-8"?>
<svg version="1.1" viewBox="0 0 1000 1000" width="1280" height="1280" xmlns="http://www.w3.org/2000/svg">
<path transform="translate(543,300)" d="m0 0h2l24 36 7 11-13 7 3 6-1 3-16 9 18 9 10 8 4 3 2-12 7-3 2-13h54l1-8h51l3 15 8 51v5l15-8 11-3 16-1 2 1-1-33 10 1v-15l73 16 3 1 3 12v3l5 1 3-13 8 1 57 14-1 7-60 180-2 1h-4l-4 11-7-1-40-12-1-1v-19l-15-1-31-4 1-14 1-10-14 5-9 1 2 10-9-1-3-1 2 9v6l-21-3-47-8-1-1-3-25-3 3-5 9h-3l-10-18v-2h-5l-2 14-2 1-59-9 2-16 2-12-14 7-20 6h-2v40l-9-4v18l6 2 4 5 1 3v17l4 2 2 2 8-6 9-1v-11l2-16 4-8 5-4 2-1h9l6 4 3 5 1 9-2 20-1 4 3-1h10l6 4 4 5 3 11v21l-3 17-3 5-5 3-7 1-8-3h-3l-6 3-10-1-5-3-1-2-13 3h-13l-6-1-4 3-3 1h-7l-6-3h-4l-7 2-12-1-4 1h-13l-6-3-5 1-10 3h-13l-8-4-4-7-1-8 3-12 8-16 10-12 8-6 6-1 7 3 7 1h3l10-6 3-1h10l5 3 3 3 1-16 3-8 5-4 4-2-97-47-1 27-9 1v15l-48 8h-6l-2-20-1-3-8 7-12 7-17 5h-19l-11-3-12-6-8-7-5-7 4 17 3 11v4l-9 3h-3l4 13-3 3-52 17-3-1-13-28-12-27-18-40-13-29-5-11-6 2-6 3h-3l-17-29-19-32v-2l12-8-2-6-2-3v-3l19-12 15-8 25-10 18-5 17-3 12-1h12l18 2 15 4 15 8 10 8 8 9 7 12 4 16v13l-1 6 15-8 11-3 12-1-1-6-1-30 9-2-1-15 36-12 38-12h3l1 26 14-27h3l15 14 8 7 10 9 8 7 5 4 4-2 3-2-1-7 9-10-1-5 11-12 9-11 11-12 9-11 11-12zm-135 78m166 52m-326 79m-1 1 1 3zm8 33m205 78-10 8v2l4-1h10l2-4zm92 2-5 5 1 2 5-2v-5z" fill="#034B95"/>
<path transform="translate(192,377)" d="m0 0h27l16 3 10 4 12 8 7 7 6 10 3 8v19l-4 13-7 13-8 10-7 8-14 11-4 3h-2l18 69v5l-28 9h-2l-16-35-12-27-26-58-8-18v-2l-15 7h-2l-9-16-12-20v-3l16-9 20-9 19-6z" fill="#FFCB08"/>
<path transform="translate(415,501)" d="m0 0 20 9 68 34 15 7v19l6 2 4 5 1 3v17l4 2 2 2 8-6 9-1v-11l2-16 4-8 5-4 2-1h9l6 4 3 5 1 9-2 20-1 4 3-1h10l6 4 4 5 3 11v21l-3 17-3 5-5 3-7 1-8-3h-3l-6 3-10-1-5-3-1-2-13 3h-13l-6-1-4 3-3 1h-7l-6-3h-4l-7 2-12-1-4 1h-13l-6-3-5 1-10 3h-13l-8-4-4-7-1-8 3-12 8-16 10-12 8-6 6-1 7 3 7 1h3l10-6 3-1h10l5 3 3 3 1-16 3-8 5-4 4-2-97-47-1-1zm45 120-10 8v2l4-1h10l2-4zm92 2-5 5 1 2 5-2v-5z" fill="#2D5AA8"/>
<path transform="translate(348,588)" d="m0 0h9l9 3 1 1v18l12-7 9-2 13 4 4 4 3 9 1 5v19l-5 18-4 5-5 2h-13l-10 3h-11l-7 4h-9l-6-3-3-3-2 5-5 4-2 1h-10l-5-3-2-4-11 9-11 4h-11l-4-1-5 5-3 1h-9l-5-4-4 1-14 9-11 4h-12l-7-4-4-6-1-4v-13l4-14 11-23 11-17 9-10 7-4 12 1 2 3 1 5v14l-3 5-8 3-7 11h2l12-5 13-6h8l8-11 4-4 3-1h13l9 2 1-16 4-7 6-4 7-1 12 3 5-6zm-113 60m-6 13-2 9 5-2-2-7z" fill="#2C5AA8"/>
<path transform="translate(776,388)" d="m0 0 10 1 39 8 16 75 1 1 16-67 9 1 27 6 2 2-35 106-17 52-2 1-24-7-1-1-1-25-1-42-1-25-12 68-1 2-27-4-1-1 1-17 2-5 10-11 7-12 4-11 2-12v-8l-3-14-6-12-7-8 2-25-10-3v-11z" fill="#FFCB08"/>
<path transform="translate(392,371)" d="m0 0h1l1 7 2 34 1 5 13-18 12-17 8-11 7 6 11 11 8 7 7 7-6 8-15 15-7 8-12 12-5 6 8 4 33 13 3 3 10 13 11 8 13 6 16 4v30l-6-2-102-51-3-1v58l-21 3h-7l-2-18v-6l5-11 3-11 1-7v-9l-3-14-7-14-5-6-2-17-2-24v-8l-13 3-1-12 18-6z" fill="#FFCB08"/>
<path transform="translate(661,370)" d="m0 0h25l3 16 8 53-7 10-6 12-3 11v19l4 13 5 9 8 9 10 6 3 2 1 8-13-1-24-4-2-7-8-53-1-5-13 33h-2l-18-38-2-5-6 35-3 17-21-3-14-3 1-11 3-18 7-7 7-8v-3l-9-8 2-16 9-53 1-2h35l2 6 7 38h1l9-50z" fill="#FFCB08"/>
<path transform="translate(518,386)" d="m0 0h21l13 4 12 7 7 7-2 4-10 10-7 8-9 9-7 8-8 8-2 3 11-1 12-5 10-9 4 2 16 15 4 3-2 4-11 9-10 6-19 7-10 2h-22l-13-4-9-5-9-8-6-10-3-8-1-6v-15l4-13 7-11 8-8 14-8 12-4z" fill="#FFCB08"/>
<path transform="translate(634,567)" d="m0 0h8l6 4 4 6 1 9-5 14 4 1 8 6 2 2 5-3h8l6 2 7-2 7 1 5 3 7-1h9l6 3 5 6 3 9v36l-4 8-6 3h-9l-6-3h-4l-3 1h-8l-7-3-6 1h-8l-6-3-4-4-2-5-13 7-7 1-7-3-5-5-8-18 1-8 3-4 4-15-1-4-5-5-1-3v-7l10-21 5-5z" fill="#2C5AA8"/>
<path transform="translate(322,439)" d="m0 0h9l13 3 11 7 6 7 5 10 2 9v10l-2 10-5 12-8 11-7 7-13 8-13 4h-19l-12-5-9-7-6-9-4-11v-18l4-12 6-11 10-11 14-9 12-4z" fill="#FECA08"/>
<path transform="translate(745,428)" d="m0 0 12 1 11 4 9 7 6 9 3 7 1 5v12l-3 12-7 13-8 9-10 7-10 5-8 2h-17l-11-4-9-6-6-8-4-9-1-4v-15l4-13 7-12 10-10 14-8 9-3z" fill="#FFCB08"/>
<path transform="translate(783,598)" d="m0 0h7l8 4 2 2h8l7 3 5 5 2 4-1 14 1 27 1 16v15l-5 6-2 1h-10l-8-4h-7l-10-3-3-3h-13l-5-3-15-1-8-4-4-5-1-8 3-9 7-8-4-6-1-3v-7l4-6 8-4 9-2h8l5 2 3-15 5-6z" fill="#2D5BA9"/>
<path transform="translate(99,411)" d="m0 0 3 4 17 29 11 18v2l13-6 3 1 16 36 19 42 18 40 8 18 42-13 4 1 3 12-9 4-43 14-5 1-8-16-36-80-13-29-5-11-6 2-6 3h-3l-17-29-19-32v-2l12-8z" fill="#FEFEFE"/>
<path transform="translate(255,492)" d="m0 0h1l2 18 5 13 7 11 8 7 8 5 12 4 5 1h16l15-4 16-8 8-6 1 1 1 11v11l42-6h4v15l-48 8h-6l-2-20-1-3-8 7-12 7-17 5h-19l-11-3-12-6-8-7-7-10-8-30-1-5-1-7z" fill="#FEFEFE"/>
<path transform="translate(844,611)" d="m0 0 7 1 6 4 3 6-1 16-3 34-1 5 4 6 1 7-3 6-7 4h-14l-6-3-4-4-1-9 3-6 2-2 1-53 3-6 6-5z" fill="#2F5CA9"/>
<path transform="translate(415,501)" d="m0 0 20 9 68 34 15 7v19l-5-1-97-47-1-1z" fill="#FEFEFE"/>
<path transform="translate(759,528)" d="m0 0 2 1-3 23 12 1 34 5v19l12 3 31 10-3 11-1 2-7-1-40-12-1-1v-19l-15-1-31-4 1-14 1-10-14 5-9 1-2-13 17-1 14-4z" fill="#FEFEFE"/>
<path transform="translate(668,615)" d="m0 0h6l3 4 1 3 7-6 7-1 6 5 1 2 7-4h10l4 5 1 3v37l-2 2h-7l-3-3 2-30-2-5-5 1-3 2-2 31-2 2h-7l-2-1v-12l1-11v-10l-2-4-5 2-4 7v26l-1 1h-8l-2-2-1-8-1-32z" fill="#FEFEFE"/>
<path transform="translate(566,563)" d="m0 0h7l2 4-1 16-1 14v17l7-8 4-2h9l4 6 1 3v25l-2 12-4 3-6-1-1-1v-8l1-6v-23l-5 2-5 6-3 8v22l-2 1h-6l-2-2-1-9-1-27v-36l2-12z" fill="#FEFEFE"/>
<path transform="translate(217,417)" d="m0 0h11l10 4 7 8 2 5v14l-6 12-9 9-11 7-7-21-9-31v-3z" fill="#034B95"/>
<path transform="translate(241,613)" d="m0 0 5 1 1 10-2 2-6 2-8 11-8 16-4 13-1 10 1 3h6l12-7 14-12 3-4-11 6-4-1v-6l4-3 22-10h3l-1 13-1 7v14l-4 3-4-1-1-2v-12l-12 11-14 9-9 4h-11l-4-5-1-8 4-16 10-21 11-17 8-9z" fill="#FDFDFD"/>
<path transform="translate(571,488)" d="m0 0 1 4-4 24 40 6 13 2 1 4-2 11-2 1-59-9 2-16 2-12-14 7-20 6h-2v-14l20-4 16-6z" fill="#FEFEFE"/>
<path transform="translate(288,628)" d="m0 0h12l6 4 3 6 1 11-3 10-6 8-6 5-6 3h-11l-5-4-1-3v-11l5-14 7-10z" fill="#FEFEFE"/>
<path transform="translate(516,404)" d="m0 0h10l10 4 5 4-2 4-10 11-9 11-13 14-5-2-6-9-2-11 3-12 9-10z" fill="#034B95"/>
<path transform="translate(656,517)" d="m0 0 2 3 3 24 8 2 45 8 4 1 2 9v6l-21-3-47-8-1-1-2-17v-11z" fill="#FEFEFE"/>
<path transform="translate(736,438)" d="m0 0h12l-4 2-6 4-3 6 1 7 5 5 4 2h8l6-3 4-6 1-5 2 2 1 3v12l-4 8-7 6-9 3h-8l-11-4-7-7-3-7v-11l4-8 7-6z" fill="#024A95"/>
<path transform="translate(318,450)" d="m0 0h10l-3 2-6 3-3 6v6l4 6 6 3h8l7-4 3-7 2-3 3 9-2 11-6 8-6 4-6 2h-11l-9-4-5-5-4-6-1-3v-10l5-10 8-6z" fill="#024A95"/>
<path transform="translate(485,601)" d="m0 0 6 1 4 5 3 9 1 7v18l-2 9-3 2h-6l-2-4-9 4-9 1-5-3 2-9 9-10 11-10 2-1-1-8-7 2-7 6-3-1-1-7 7-6z" fill="#FEFEFE"/>
<path transform="translate(385,610)" d="m0 0 6 1 4 5 3 11v23l-3 8-7 1-2-1-1-3-6 4-6 2h-9l-1-1v-7l5-8 15-15 3-2v-5l-3-2-7 4-4 4-4-1-1-5 5-6z" fill="#FEFEFE"/>
<path transform="translate(757,628)" d="m0 0h9l5 5 4 9 1 6v20l-2 7-5 2-5-3v-4l-9 3-10-1-4-4 1-7 4-6 14-9 4-2-1-6-1-1-8 1-3 2-4-1-1-1v-6l6-3z" fill="#FEFEFE"/>
<path transform="translate(639,606)" d="m0 0 6 1 8 5 4 6 1 5-2 6-5 4-11 5 1 9 5-1 11-9 5 1 1 3-6 7-14 8-6 1-4-2-3-6v-8l-4-1v-5l3-2 4-17 4-8z" fill="#FEFEFE"/>
<path transform="translate(514,578)" d="m0 0 5 1 1 1 1 24h5l1 7-2 3-4 1-2 36-2 2h-7l-2-2 1-34h-5l-2-2 1-6 6-3 1-24z" fill="#FEFEFE"/>
<path transform="translate(541,321)" d="m0 0 4 4 12 16v3l-44 22-4-1-1-4 9-11 11-13 9-11z" fill="#FFCB08"/>
<path transform="translate(351,596)" d="m0 0 5 1 1 2v18h5l2 5-2 4-5 1-1 35-3 3h-7l-1-1v-17l1-16h-7v-6l5-3h2v-21z" fill="#FEFEFE"/>
<path transform="translate(784,607)" d="m0 0h6l4 4-1 14 1 29 1 15v12l-1 1-7-1-4-4-1-29-1-15v-20z" fill="#FEFEFE"/>
<path transform="translate(803,613)" d="m0 0 7 1 3 3-1 18 2 36 1 13-3 3-7-2-2-2-1-7-2-42v-14z" fill="#FEFEFE"/>
<path transform="translate(323,602)" d="m0 0 6 1 1 19h5l1 1-1 7-6 2v25l-1 10-2 2h-8l-1-1 1-32h-6l-1-5 3-3 4-2v-17l3-6z" fill="#FEFEFE"/>
<path transform="translate(450,605)" d="m0 0 4 1 1 1-1 9-8 6-4 5-4 12v6l4 1 8-4 5-4h5l1 5-5 5-12 5-10 1-5-2-3-4 1-11 5-12 8-11 8-8z" fill="#FEFEFE"/>
<path transform="translate(547,603)" d="m0 0h5l1 1v8l-4 4-6 4-5 10-2 7 1 6 8-1 9-6 5 1v5l-5 4-10 4-10 1-7-3-2-2v-12l5-12 7-10 8-8z" fill="#FEFEFE"/>
<path transform="translate(843,619)" d="m0 0h6l3 3v12l-3 35-3 5-7-1-1-2v-19l1-29z" fill="#FEFEFE"/>
<path transform="translate(330,389)" d="m0 0h3l1 12v15l9-3h4l1 3 1 15-10-2-13-2-1-6-1-30z" fill="#FEFEFE"/>
<path transform="translate(632,506)" d="m0 0 3 3 12 22-7 14h-3l-10-18 2-1 2-17z" fill="#FEFEFE"/>
<path transform="translate(752,383)" d="m0 0 10 1 1 28 9 2 1 1v6l-9-3-10-2-1-1z" fill="#FEFEFE"/>
<path transform="translate(293,636)" d="m0 0 4 4 1 3v13l-4 8-5 4-4-1-1-2v-12l5-13z" fill="#2B59A8"/>
<path transform="translate(560,354)" d="m0 0 3 1 3 5-1 3-18 10-11-1-4-1v-2l27-14z" fill="#3964AD"/>
<path transform="translate(219,429)" d="m0 0h9l6 4 1 2v12l-6 9h-2l-8-26z" fill="#FEFEFE"/>
<path transform="translate(638,575)" d="m0 0 5 3 1 2-1 9-4 8-6 5-5-1-1-1 1-7 8-16z" fill="#FEFEFE"/>
<path transform="translate(517,414)" d="m0 0h8v3l-9 11-9 10-2-2-1-7 3-8 7-6z" fill="#FEFEFE"/>
<path transform="translate(841,679)" d="m0 0 6 1 4 5v5l-3 2h-11l-3-3v-5l5-4z" fill="#FEFEFE"/>
<path transform="translate(489,368)" d="m0 0 8 8v2l-16 8-2-3 1-5z" fill="#416AB0"/>
<path transform="translate(764,652)" d="m0 0h2v8l-1 3-8 4-5-2 1-5 7-6z" fill="#2B59A8"/>
<path transform="translate(387,636)" d="m0 0h1v7l-2 5-6 5-6 1 1-7 10-10z" fill="#2B59A8"/>
<path transform="translate(487,629)" d="m0 0h1v11l-7 5-6 1-1-3 3-5 8-8z" fill="#2B59A8"/>
<path transform="translate(396,604)" d="m0 0 5 1 4 4 3 9 1 5v19l-1 5h-1l-1-19-4-15-4-6z" fill="#FEFEFE"/>
<path transform="translate(452,435)" d="m0 0h1l1 16-5-1-8-3 2-4z" fill="#FEFEFE"/>
<path transform="translate(583,416)" d="m0 0 1 2-3 18-8-6v-4z" fill="#FEFEFE"/>
<path transform="translate(583,384)" d="m0 0h6l-2 16-5-5-1-3z" fill="#FEFEFE"/>
<path transform="translate(643,618)" d="m0 0 5 2 1 5-9 4 1-7z" fill="#2B59A8"/>
<path transform="translate(590,377)" d="m0 0 1 3-1 6-1-2h-6l1-5z" fill="#4970B4"/>
<path transform="translate(361,590)" d="m0 0 5 1 1 1v18h-1l-2-15z" fill="#FEFEFE"/>
</svg>
