<?xml version="1.0" encoding="UTF-8"?>
<svg version="1.1" viewBox="0 0 2048 752" xmlns="http://www.w3.org/2000/svg">
<path transform="translate(1134,1)" d="m0 0 5 1 10 16 29 43 34 51 1 4-22 12-56 30-22 12-7 4 24 3 21 5 19 7 21 11 14 10 11 9 1-9 5-30 3-5 17-9 11-6 4-2 99-1 25-14 9-5h125l2 8 16 101 10 64v4l20-12 15-7 18-6 19-4 10-1h15l-1-42v-53l28-15 5-3 8 1 33 7 109 24 36 8 3 3 3 17 16-8 7-4 10 1 111 27 36 9 4 2-3 9-24 73-35 105-14 43-59 177-14 43-4 9-14 8-19 10-10-2-104-33-4-2-2-45-53-8-57-8-1-1 1-16 4-35 1-7-21 7-25 5h-4l6 36v5l-9 6-24 13-9-1-157-28-4-1-2-13-3-27v-4l-26 14-5-5-14-27-6 2-22 12-23-3-125-20-2-1 1-11 8-48v-3l-16 9-19 9-26 8-14 3-1 4-1 110-26 14-6 4-9-3-68-34-23-11-112-56-25-12-6-3-1 83-19 10-15 7-19 4-103 15-10 1-1-1-4-43v-7l-11 9-21 14-17 9-19 7-22 5-9 1h-27l-17-3-16-5-21-10-14-10-19-19-10-14-5-9 4 16 15 57 9 35-1 3-18 12-14 9-19 7-68 22-50 16-4 1-7-14-15-34-36-82-20-45-15-34-17-39-20-45-13-30-3-7v-3l-14 5-21 9-3-3-17-29-15-25-17-29-15-25-14-24-11-18 2-4 28-28 18-11 19-12 19-11 27-14 27-12 29-11 29-9 38-9 26-4 25-2h34l31 3 23 4 21 6 20 9 23 14 13 10 10 9 11 11 11 15 10 17 7 17 5 19 2 17v14l-2 21-1 7 20-12 15-7 18-6 19-4 7-1h33l4 1-1-7v-15l-15 4-13 3h-5l-1-9-4-82v-8l8-5 26-14 36-12 114-36 31-10 7-1v16l-1 9h3l1-6 5-6 19-10 11-6 5 1 12 11 8 7 10 9 8 7 10 9 8 7 10 9 8 7 10 9 11 9 13 12 4 3 6-2 18-10h2l-4-7-9-10-9-11v-4l13-15 9-10 9-11 11-12 9-11 12-13 9-11 11-12 9-11 11-12 9-11 11-12 7-8 9-10 10-6zm-41 287m-1 1m-1 1m-1 1m-1 1 1 2zm-1 2m-1 1m-1 1m-20 0-11 1-8 4-5 6-4 9-1 6v11l3 12 1 2 4-2 11-12 7-8 12-14 10-12v-1zm-153 32-11 11-8 7-11 11-3 2v2l21 9 13 5h3l-2-25-1-22zm-575 6 7 25 10 32 1 2h3l9-11 3-4-1-2-6 7v-3l2-7v-15l-3-10-4-6-5-4-11-4zm36 34 1 2zm-1 2 1 2zm-1 2 1 2zm-1 2 1 2z" fill="#2E66AD"/>
<path transform="translate(297,188)" d="m0 0h13l33 3 23 4 23 7 19 10 11 7 13 10 14 14 9 13 10 19 5 18 1 8v22l-3 17-5 17-9 21-11 18-9 13-10 13-18 20-4 4h-2v2l-11 9-18 14-11 7-3 4 9 33 9 35 14 54 13 49v6l-22 8-41 13-9 3-4-1-18-40-26-58-16-36-11-25-7-15-6-14-7-15-6-14-7-15-9-20-12-28-5-10-8-18-10-23-5-10v-3l-10 4-28 14-4-4-13-22-19-32-17-29-3-5 1-4 14-9 22-12 29-14 28-11 30-10 31-8 28-5zm41 146 7 25 10 32 1 2h3l9-11 3-4-1-2-6 7v-3l2-7v-15l-3-10-4-6-5-4-11-4zm36 34 1 2zm-1 2 1 2zm-1 2 1 2zm-1 2 1 2z" fill="#FDC609"/>
<path transform="translate(1707,216)" d="m0 0 10 1 40 8 31 6 30 6 10 3 2 5 12 58 8 39 7 32 4 18 6 26 1 8 3-3 8-35 12-48 10-42 9-34 3-4 10 2 42 9 31 7 7 2-1 7-12 37-14 41-12 37-50 150-14 43-15 45-7 23-5 12-10-2-47-14-8-3-2-52-2-88-1-28-1-61-2 8-5 35-5 27-7 37-4 23-3 16-5 27-1 1-14-1-55-9-1-1v-11l3-37 3-6 14-14 9-11 10-14 9-16 7-16 6-21 2-10 1-10v-20l-2-18-5-19-7-17-8-12-8-10-8-9-1-4 4-44 1-15-24-6-2-5 1-20 1-8z" fill="#FDC609"/>
<path transform="translate(761,176)" d="m0 0h5l3 50 4 63 5-5 14-19 14-20 10-14 13-18 12-17 11-15 4-5 4 1 4 5 8 7 12 12 8 7 15 15 8 7 9 9 2 1v2l4 2 8 8-2 4-7 7-7 8-9 9-7 8-9 9-7 8-12 12-7 8-13 13-1 2h-2l-2 4-14 14-1 2h-2l-2 4-8 8-1 3 7 1 11 5 36 14 38 15 14 7 7 9 8 12 11 12 9 9 15 11 16 9 16 7 16 5 22 5 8 1 1 1v75l-6-1-19-9-208-104-17-9-21-10h-3v133l-1 8-30 5-34 5h-6l-4-40-1-20 8-16 7-18 5-19 2-12v-34l-4-23-6-17-7-14-9-13-11-13-3-27-7-83-1-9-10 2-18 5h-3l-1-2v-28l5-3 74-22z" fill="#FDC609"/>
<path transform="translate(1426,172)" d="m0 0h61l2 9 12 80 10 64 2 11v8l-8 9-10 14-8 16-7 18-4 14-4 24v23l4 20 6 18 11 21 11 14 10 10 11 8 18 11 5 4 3 16-1 4-12-1-51-8-27-4-3-2-15-98-9-60v-2h-2l-2 8-17 43-12 32-4 1-10-21-7-16-8-16-6-14-7-14-9-20-3-6-2-1-1 13-14 86-5 30-11-1-34-6-41-7-2-2 2-13 9-56 4-6 18-18 7-8 6-7 3-3-12-12-8-7-5-4-1-6 10-59 16-95 3-14 4-3h84l2 4 8 44 7 36 5 30 2-3 7-40 10-56 3-17 2-9 2-6z" fill="#FDC609"/>
<path transform="translate(287,152)" d="m0 0h34l31 3 23 4 9 3 1 3h2v2l5 2 6 3h2v2l4 1 8 4-4 1-5-2-7-2-5 1h-10l-3-1-10 2-1 3 1 1 8 4 6 5v2l3 1-9 3-25-5-24-3-14-1-5-1h-15v1h-11l-4 1h-6v2l-22 3-29 6-31 9-28 10-23 10-25 12-22 12-12 8 1 5 17 29 17 28 15 26 3 5 3 1 19-10 6-3 4 1-8 4-1 2 5-1v-2l4 1-7 6-2 1h9l3 8 1 7 4 9 3 9v3l3 3 2 9 1 5 3 8 2 9 5 12 6 15 2 6v2l3 1 6 12-1 3 4 10 4 4 2 4v7l5 15 4 8 6 16 5 9 3 2 1 7 3 7 3 5 3 4 1 5 2 5 5 4v4h2l1 5 7 10 5 11 8 20 3 9 3 10 7 20 6 4 3 6v2h2l4 5 6 4 9 1 5-1 1 3 4-2 1-3 9-1 1-2 7-1 21-5v-2l7-2 9-2 3 2-1 3h-2v2l13-3 3-4h3l1-5 6-1 2-1 4-5h2l-1-2v-11l-4-4-1-3 1-1-1-9-5-15-4-13-2-11-3-10-1-17-2-7-2-3-2-10-1-3-2-25 1-14h4l2 5v-7l-2-12 5-5 11-9 12-10h2l1 21 3 22 4 15 6 16 5 9 8 12 11 13 8 8 15 11 15 8 21 7 15 3 9 1h32l21-4 13-4 12-5 14-7 3 1-10 9-20 13-17 9-19 7-22 5-9 1h-27l-17-3-16-5-21-10-14-10-19-19-10-14-5-9 4 16 15 57 9 35-1 3-18 12-14 9-19 7-68 22-50 16-4 1-7-14-15-34-36-82-20-45-15-34-17-39-20-45-13-30-3-7v-3l-14 5-21 9-3-3-17-29-15-25-17-29-15-25-14-24-11-18 2-4 28-28 18-11 19-12 19-11 27-14 27-12 29-11 29-9 38-9 26-4z" fill="#375BA3"/>
<path transform="translate(1096,210)" d="m0 0 26 2 18 4 14 5 16 8 12 8 12 11 9 9-1 5-8 8-7 8-8 8-7 8-9 9-7 8-16 17-7 8-15 15-7 8-16 17-1 2h-2l-1 4 10-2 14-2 20-6 12-6 13-10 8-8h2l2-4 5-2 9 9 8 7 10 9 11 10 8 7 10 9-2 5-3 3h-2l-2 4-11 10-19 13-16 9-17 8-30 10-23 5-12 2-12 1h-12l-16-2-20-4-17-6-16-8-11-8-10-9-9-9-7-10-8-16-5-15-3-16-1-8v-23l3-16 5-16 8-16 7-11 9-10 13-13 18-13 17-9 19-7 17-4 18-3zm-3 78m-1 1m-1 1m-1 1m-1 1 1 2zm-1 2m-1 1m-1 1m-20 0-11 1-8 4-5 6-4 9-1 6v11l3 12 1 2 4-2 11-12 7-8 12-14 10-12v-1z" fill="#FCC609"/>
<path transform="translate(597,342)" d="m0 0h9l16 2 15 4 16 7 14 9 11 10 10 13 9 19 4 13 2 11v28l-4 20-6 16-8 16-9 14-8 10-9 10-10 10-11 8-17 10-17 7-19 5-14 2h-17l-18-3-15-5-14-7-12-9-11-11-8-11-8-16-6-21-2-15v-9l2-18 6-21 6-13 6-12 10-14 9-11 10-10 14-11 14-9 14-7 13-5 22-5z" fill="#FCC609"/>
<path transform="translate(1627,316)" d="m0 0h21l20 4 13 5 13 7 9 7 9 8 10 14 6 12 5 15 2 13v22l-2 13-3 11-6 16-9 16-8 11-11 13-13 13-16 11-16 8-16 6-17 4-7 1h-22l-19-4-16-6-16-10-14-14-7-10-8-16-4-13-2-10-1-10v-9l2-17 6-20 8-17 9-14 12-15 8-7 10-9 16-11 16-8 13-5z" fill="#FCC609"/>
<path transform="translate(151,390)" d="m0 0 3 1 7 11 8 17 7 15 30 66 13 29 3 7 5 11 5 12 6 12 3 8 5 11 16 36 6 12 4 10 16 36 15 33 4 8v2l17-5 14-5 29-9 24-7 7-3 39-13h5l-5 5-18 12-12 6-55 18-50 16-29 9-7-14-15-34-36-82-20-45-15-34-17-39-20-45-13-30-3-7v-3l-14 5-11 5h-7l6-8 10-9 6-5 2-3 9-3 17-7h3v-2z" fill="#1C3266"/>
<path transform="translate(1206,461)" d="m0 0h2l-6 39-4 23-2 9 19 2 14 2 2 1 35 5 25 4 13 2 42 6v-8l2-9 4-29 1-4h2l7 14 10 18 14 26 4 5 1 5 3-3 15-29 6-11h1l6 49 3 24 16 3 23 4 2 1 26 4 98 17 1 3-24 13-7 4-9-1-157-28-4-1-2-13-3-27v-4l-26 14-5-5-14-27-6 2-22 12-23-3-125-20-2-1 1-11 8-48v-3l-16 9-19 9-26 8-16 3v-17l4-2 16-3 27-6 33-11 28-13z" fill="#1C3266"/>
<path transform="translate(1670,560)" d="m0 0h1v10l-6 50h10l95 14 7 2 1 6 1 37 3 3 18 6 13 4 17 5 9 3 32 10 14 4 8 3-1 3-26 14-4 2-10-2-104-33-4-2-2-45-53-8-57-8-1-1 1-16 4-35 1-7-21 7-25 5-4-1-2-13 35-3 19-3 21-7z" fill="#1C3266"/>
<path transform="translate(819,494)" d="m0 0 19 9 34 17 20 9 19 10 17 8 16 8 21 10 19 10 80 40 16 7 11 6v4l-23 12-6 4-9-3-68-34-23-11-112-56-25-12-6-3z" fill="#1C3265"/>
<path transform="translate(342,295)" d="m0 0 14 1 12 3 9 4 11 7 3 3v2h2l8 13 3 10 1 8v17l-4 16-8 16-8 10-14 14-16 12-12 8-2-1-21-67-18-60 1-5 11-5 13-4zm-4 39 7 25 10 32 1 2h3l9-11 3-4-1-2-6 7v-3l2-7v-15l-3-10-4-6-5-4-11-4zm36 34 1 2zm-1 2 1 2zm-1 2 1 2zm-1 2 1 2z" fill="#385BA3"/>
<path transform="translate(1426,172)" d="m0 0h61l2 9 12 80 10 64 2 11v8l-8 9-10 14-8 16-7 18-4 14-4 24v23l4 20 6 18 11 21 11 14 10 10 11 8 18 11 5 4 3 16-1 4-12-1-19-3v-1h7l4 1-3-3-12-6-15-11-10-9-11-14-10-15-6-13-5-15-3-16v-25l3-21 5-17 8-20 7-14 8-10 3-1 2-5 5-7-1-12-7-48-5-31-8-52-4-30h-21l-28-1-1 7h-1v-6l2-9 2-6z" fill="#C49C09"/>
<path transform="translate(427,472)" d="m0 0h2l1 21 3 22 4 15 6 16 5 9 8 12 11 13 8 8 15 11 15 8 21 7 15 3 9 1h32l21-4 13-4 12-5 14-7 3 1-10 9-20 13-17 9-19 7-22 5-9 1h-27l-17-3-16-5-21-10-14-10-19-19-10-14-7-14-5-17-13-52 1-4 4-4 11-9z" fill="#1C3266"/>
<path transform="translate(297,188)" d="m0 0h13l33 3 23 4 23 7 19 10 11 7 13 10 14 14 9 13 10 19 5 18 1 8v22l-3 17-5 17-9 21-11 18-7 10-1-2 6-14 6-17 5-17 2-19v-15l-2-16-6-18-9-17-8-10-9-10-11-10-20-13-17-9-15-5-18-4-33-4h-36l-20 2-22 3-23 5-26 7-23 8-32 13-15 7-16 8-6 4-4 1 2 6 4 7-1 2-9-15 1-4 14-9 22-12 29-14 28-11 30-10 31-8 28-5z" fill="#C49C09"/>
<path transform="translate(1620,340)" d="m0 0h11l3 1v2l-12 4-10 9-5 8-1 3v13l5 12 7 7 10 5 12 3 11-1 10-4 11-9 4-7 2-14 5 5 3 12v15l-3 11-6 12-8 10-12 9-18 6-8 1h-13l-12-3-9-4-10-6-6-5-6-8-5-9-4-10-1-5v-15l4-14 6-10 11-11 13-8 9-3z" fill="#2E66AD"/>
<path transform="translate(589,370)" d="m0 0h9l3 1v2l-10 3-10 8-6 9-2 7 1 11 3 8 9 10 8 4 10 3h11l10-3 11-7 6-8 3-7v-12l4 2 4 10 2 11v10l-3 12-7 14-11 12-9 6-14 5-15 2h-8l-14-3-14-7-9-7-7-8-8-16-3-12 1-13 4-13 4-8 6-7 13-10 12-6z" fill="#2E66AD"/>
<path transform="translate(824,372)" d="m0 0 1 3 7 1 11 5 36 14 38 15 14 7 7 9 8 12 11 12 9 9 15 11 16 9 16 7 16 5 22 5 8 1 1 1v75l-6-1-13-6 3-1-1-43-1-8-23-5-21-6-15-6-15-8-13-9-12-11-13-13-12-17-4-5-16-8-24-10-28-11-26-11-9-4 2-4 9-10z" fill="#C49C09"/>
<path transform="translate(1069,263)" d="m0 0h19l15 4 15 8 8 7-1 5-9 11-11 12-7 8-18 20-9 11-12 13-9 11-7 7-5-1-11-11-8-13-5-14-1-5v-12l3-14 5-13 6-10 8-8 10-7 10-5zm24 25m-1 1m-1 1m-1 1m-1 1 1 2zm-1 2m-1 1m-1 1m-20 0-11 1-8 4-5 6-4 9-1 6v11l3 12 1 2 4-2 11-12 7-8 12-14 10-12v-1z" fill="#2E67AD"/>
<path transform="translate(1707,216)" d="m0 0 10 1 40 8 31 6 30 6 10 3 2 5 12 58 8 39 7 32 4 18 6 26 1 8 3-3 8-35 12-48 10-42 2-4-1 10-8 33-5 21-11 44-2 10-4 16-8 11-8 8h-3l-2-5-5-22-5-24-6-28-7-35-4-18-10-48-2-9-7-3-48-10-42-8-9-3 1 14 3 2-5-1-1-4 1-20 1-8z" fill="#C49C09"/>
<path transform="translate(1913,260)" d="m0 0 10 2 42 9 31 7 7 2-1 7-12 37-14 41-12 37-50 150-14 43-15 45-7 23-5 12-10-2-3-2 4-1 16-47 19-57 14-43 22-66 14-43 15-45 14-43 9-28-9-3-56-13-14-4-4 16-1-4 7-26z" fill="#C49C09"/>
<path transform="translate(1129,53)" d="m0 0h4l6 9 16 22 10 14 5 6-1 4-20 11-23 11-68 34-5-1-6-8 1-5 12-14 11-14 12-14 9-11 14-17 9-10 9-11z" fill="#FBC409"/>
<path transform="translate(597,342)" d="m0 0h9l16 2 15 4 16 7 14 9 11 10 10 13 9 19 4 13 2 11v28l-4 20-6 16-8 16-9 14-7 9v-3l8-21 6-18 3-15v-27l-3-17-7-18-7-13-9-11-8-8-13-8-14-7-17-5-5-1h-31l-25 5-12 4-8 4-6 2v-2l-7 5-2-1 12-10 15-9 12-6 13-5 22-5z" fill="#C49C09"/>
<path transform="translate(27,250)" d="m0 0 5 5 6 10 1 4h2l6 11v3h2l15 26 9 15 13 23 7 13v3l-5 5-5 4-8 5h-7l-12-4-17-28-12-21-27-45 2-4z" fill="#0E518F"/>
<path transform="translate(1627,316)" d="m0 0h21l20 4 13 5 13 7 9 7 9 8 10 14 6 12 5 15 2 13v22l-2 13-3 11-6 16-9 16-8 11-5 5 2-5 2-7 7-18 4-18 1-8v-18l-3-20-5-13-8-15-7-9-10-10-13-8-15-7-13-4-16-2-19 1-23 5-11 3-9 5-7-2 5-5 11-7 16-8 11-4z" fill="#C49C09"/>
<path transform="translate(151,390)" d="m0 0 3 1 7 11 8 17 7 15 30 66-1 3-6-11-3 1h-5l-1 1-8 1-5 2-3-1v4h-2l-1 11-3 3-14-31-18-41-9-21v-3l-14 5-11 5h-7l6-8 10-9 6-5 2-3 9-3 17-7h3v-2z" fill="#0E518F"/>
<path transform="translate(1670,173)" d="m0 0h3l1 3 1 99 16 4 10 3 1 1v12l-1 5-6-2-13-5-19-5-14-2v-2l-2-1-1-5-3-7-2-11-1-1-1-16v-53l28-15z" fill="#0E508E"/>
<path transform="translate(680,571)" d="m0 0h1l3 31 1 16 1 5v8l16-3 30-4 81-13 1 3-23 12-10 4-30 5-95 14-5-1-4-43v-7l-2-1 17-12 14-11z" fill="#1C3267"/>
<path transform="translate(1292,191)" d="m0 0h84l2 4 8 44 7 36 5 30 2-3 3-18h1l-1 15-2 8-7 10-8 10-3-1-4-16-14-75-4-24-1-2-44-1h-30l1-11 3-5z" fill="#C49C09"/>
<path transform="translate(357,478)" d="m0 0 2 1-2 3 9 33 9 35 14 54 13 49v6l-14 5h-3l-4-9-14-52-8-31-13-48-7-28v-5l11-7z" fill="#C49C09"/>
<path transform="translate(1096,210)" d="m0 0 26 2 18 4 14 5 16 8 12 8 12 11 9 9-1 5-8 8-5 6-14-14-15-11-15-9-16-7-19-5-15-2h-25l-16 2-27 7-20 8-12 4-19 19v-3l6-7 16-14 16-11 15-8 19-7 17-4 18-3z" fill="#C49C09"/>
<path transform="translate(761,176)" d="m0 0h5l3 50 4 63h2v2h-2l-2 4-12 17-2-1-2-17-3-51-3-50-10 2-47 14-37 11-1 1v17l8-2 4 1-10 3h-3l-1-2v-28l5-3 74-22z" fill="#C49C09"/>
<path transform="translate(614,184)" d="m0 0h3l1 7 2 64v10l-5 1-13 4-10-1-6-3-2-13-2-43v-8l8-5z" fill="#0E518F"/>
<path transform="translate(1801,420)" d="m0 0 3 3 1 53 5 176 1 3 19 6-4 1-16-5-2-1-2-52-2-88-1-28-1-61-2 8-5 35-5 27-7 37-4 23-3 16-5 27-1 1-14-1 2-3 2-13 12-68 10-56 6-26 4-6z" fill="#C49C09"/>
<path transform="translate(541,396)" d="m0 0v3l-5 14-2 13 1 9 5 14 6 10 8 9 13 8 14 5 7 1 17-1 12-3 10-3-2 4-8 7-15 8-14 4-5 1h-9l-12-2-13-5-13-9-8-9-7-12-3-10v-17l4-14 7-13 4-5 5-3z" fill="#C49C09"/>
<path transform="translate(1571,368)" d="m0 0 1 2-4 10-2 8v15l4 13 4 8 6 8 5 5 8 6 10 5 9 3 6 1h13l11-2 15-5h3l-8 8-15 9-16 6-5 1h-16l-14-4-13-7-12-11-8-13-4-12v-14l4-14 8-15 7-6z" fill="#C49C09"/>
<path transform="translate(856,176)" d="m0 0 4 1 4 5 8 7 12 12 8 7 15 15 8 7 9 9 2 1v2l4 2 8 8-2 4-7 7-6 7-4-5-8-7-7-7-16-14v-2l-4-2-10-10-8-7-8-8-8-7-5-6h-2l2-4 10-14z" fill="#C49C09"/>
<path transform="translate(89,352)" d="m0 0 4 4 12 19 12 21 2 5 7-1-2 3-5 1-4 5-8 7-7 6-4 5 3 2-8 3-15-25-17-29-2-5 11 3h7l11-7 5-6h2l-4-8z" fill="#2E67AD"/>
<path transform="translate(784,440)" d="m0 0 2 3v130l-1 8-15 2-1-59v-36l1-35 11-10h3z" fill="#C49C09"/>
<path transform="translate(1253,160)" d="m0 0h3l-1 13-8 49-4 23-1 2-4-2-8-10-5-5-8-9v-11l5-30 3-5 17-9z" fill="#19447F"/>
<path transform="translate(302,305)" d="m0 0 2 1-1 5 16 54 10 31 13 42 1 2-10 7-4-1-12-36-16-52-8-29-2-8 1-7 5-6z" fill="#C49C09"/>
<path transform="translate(27,250)" d="m0 0 5 5 6 10 1 4h2l6 11v3h2l4 10 1 3-13 10-5 5-4 2-10-1-3-1-11-19-8-13 2-4z" fill="#1C3266"/>
<path transform="translate(1175,342)" d="m0 0 4 2 7 7 8 7 10 9 11 10 8 7 10 9-2 5-3 3h-2l-2 4-6 5-7-6-11-10-11-9-16-15-10-8-3-6 8-8h2l2-4z" fill="#C49C09"/>
<path transform="translate(172,452)" d="m0 0h8l6 7 1 4h2l17 37-1 3-6-11-3 1h-5l-1 1-8 1-5 2-3-1v4h-2l-1 11-3 3-14-31-3-7v-5l1-5 1-9 4-1v-2h8z" fill="#19447E"/>
<path transform="translate(648,276)" d="m0 0h5l1 1 3 34 1 7v8l-7-1-9-3-20-6-2-7v-15l-15 4-12 2 5-4 22-11 11-4z" fill="#1C3266"/>
<path transform="translate(1342,391)" d="m0 0 2 3-5 32-13 80-2 12-11-1-6-1v-1h5l1-13 12-77 5-21 3-5 7-6h2z" fill="#C49C09"/>
<path transform="translate(1129,53)" d="m0 0h4l6 9 16 22 10 14 5 6-1 4-17 9h-2l-7-9-13-18-10-13-3-5-8 6 2-4 10-11z" fill="#C49C09"/>
<path transform="translate(995,161)" d="m0 0h3l6 9 13 15 3 4-1 3-9 4-7 3-9 5h-2v2l-6 2v-2l-4-2-9-11-10-12 2-4 5-3 18-9z" fill="#1C3266"/>
<path transform="translate(1130,3)" d="m0 0h2l-2 5-15 16-4 6-6 5-3 5-14 15-9 11-12 13-8 6-10 3-5 1v-5l9-10 9-11 11-12 9-11 12-13 7-8 9-6z" fill="#10528F"/>
<path transform="translate(427,472)" d="m0 0h2l1 21 3 22v5l-2-1-1 2-11 6-3 5-3 3h-3l-1 4-10-40 1-4 4-4 11-9z" fill="#18447E"/>
<path transform="translate(788,440)" d="m0 0 5 1 17 8 19 10 212 106v2h2v2l-5-1-11-5-2-1v-2l-5-1-16-8h-2v-2l-6 1-4-4h-3l-2-2-7-3v-2h-4v-2l-8-1-5-3-3-3h-3v-3h-6l-1-3h-5l-1-3-4-1-20-10-15-8-6-1v-3l-6-1v-2l-4-1-6-3h-3v-2l-9-3v-2l-4 1v-3h-6v-3l-7-1-3-2v-2l-4 1-4-3-4-1-1-2-2 1-11-6-3-2v-2l-9-3v-2l-3 1v-2l-15-5-3-2 1-1-5-5z" fill="#365CA5"/>
<path transform="translate(1670,173)" d="m0 0h3v45l-5-1h-9l-5 1h-6l-3-4v-2l-3-1-2-3-1-18 28-15z" fill="#1C3165"/>
<path transform="translate(840,122)" d="m0 0h3l-2 6-12 22-11 20-3 7h-2l-1 5-7 14-3 1 1-47h3l1-7 5-6 19-10z" fill="#1C3266"/>
<path transform="translate(1031,281)" d="m0 0 2 1-8 9-7 15-3 11-1 7v12l4 14 7 14 11 12 3 3 4 2h-6l-9 5-5-1-9-13-8-16-3-14v-11l3-16 5-12 4-8 4-4 9-7z" fill="#C49C09"/>
<path transform="translate(49,285)" d="m0 0 3 3 15 26 1 6-5 3-11 8-6 4-7-1-8-3-11-19 2-1 10 1 6-3 5-6 8-6 3-1-5-9z" fill="#19447E"/>
<path transform="translate(336,323)" d="m0 0h18l10 3 8 7 4 8 1 4v20h-2l-1 5-5 8-5 6-2-1 3-10v-15l-3-10-4-6-6-4-8-4-6-1-2-5z" fill="#3268A9"/>
<path transform="translate(614,184)" d="m0 0h3v29l-4 3-12 3-7 2-5-3-3-2v-2l-3-1-1-3v-8l8-5z" fill="#1D3266"/>
<path transform="translate(1236,281)" d="m0 0 1 4-6 35-3 16-4-2-8-7-10-9-2-3 8-8 7-8 14-14z" fill="#1B3166"/>
<path transform="translate(1639,191)" d="m0 0h1l1 17 2 2 5 7h8l3-1h9l5 2v20h-11l-5 2-9-1-6-8v-4h-2v16h-1z" fill="#1C467E"/>
<path transform="translate(1886,221)" d="m0 0h2l-1 11-7 28-5 18h-3l-2-12-5-26v-8z" fill="#1B3469"/>
<path transform="translate(1431,411)" d="m0 0 3 1-1 3v-2h-2l-2 8-17 43-12 32-4 1-3-6 1-4 5-16 15-36 6-12 4-4h4l2-7z" fill="#C59C09"/>
<path transform="translate(617,191)" d="m0 0h1v38l-5 4-15 3-3 1-5-2-7-3v-19l3 1v2l4 2 6 2 11-4 8-2 1-1z" fill="#19457E"/>
<path transform="translate(1142,369)" d="m0 0 2 1-6 7-13 8-12 5-14 4-18 3h-5v-2l6-5 8-10 1 2 10-2 14-2 20-6z" fill="#C49C09"/>
<path transform="translate(587,603)" d="m0 0h5l1 3h7l2 4v3l3 1-13 3-10 2h-32l-9-1v-1l7-2 10-4 12-5 6-2z" fill="#375AA3"/>
<path transform="translate(477,543)" d="m0 0 3 1 8 10 9 9 15 10 17 7 17 4 8 1h17l19-3 20-6 16-8 14-8 13-11 4-4 4-1-2 5-4 4-6 3-5 6-4 2-2-1-2 4-9 6-6 2-4 2h-5v2l-7 1v2l-10 1-1 2-20 3h-26l-17-4-10-3-8-3v-2l-5-2-11-5v-2l-5-2v-2l-4-2-6-6v-2l-3-1-3-8z" fill="#365BA4"/>
<path transform="translate(1673,276)" d="m0 0 8 1 18 4 3 2v12l-1 5-6-2-13-5-19-5-5-1v-2z" fill="#1B3266"/>
<path transform="translate(1130,3)" d="m0 0h2l-2 5-15 16-4 6-8 7-3 2 2-6-7 2-5 5h-4l1-6 7-7 7-8 9-6z" fill="#1C3468"/>
<path transform="translate(175,349)" d="m0 0 4 2 12 27 10 23 7 15 9 20 3 7-1 4-1-3h-2l-2-5-4-3-4-11-2-6-2-2-2-8-3-3-3-7-5-10v-4h-2l-5-12-4-8-3-9z" fill="#365CA5"/>
<path transform="translate(427,472)" d="m0 0h2l1 28-2-3v-2l-5-1-14 7-6 6v5l-2-4-2-12 5-5 11-9z" fill="#0E518F"/>
<path transform="translate(497,275)" d="m0 0 3 3 2 6-2 3 2 1 6 15v14l-1 14-2 3h-2l-1 2-5-1-3-4v-5l2-5-1-1 1-8 2-4 1-15-3-12v-5z" fill="#3C5D9E"/>
<path transform="translate(85,294)" d="m0 0 2 1v2l4 1v2h2l6 11 8 12-1 3-3-1 2 3v3h2l-1 4-1-2-1 1 2 5h2l3 8-4-2-5-3-5-9-6-10-2-11-6-12v-2l2-1z" fill="#2E66AD"/>
<path transform="translate(420,682)" d="m0 0 9 2 1 3h-2v2l-36 12-8 3h-8l-3 1-1-4 8-4 26-10z" fill="#2E65AC"/>
<path transform="translate(376,667)" d="m0 0 4 1-1 2-6 1-1 1 7 1h6v-2l3-1-1 5-2 1-4-1-2 2-1 3-11-1v2h-8v2l-12 3-1 1h-5l4-4h5l-2-3-4 1v2l-10-1 2-2z" fill="#375BA4"/>
<path transform="translate(1253,160)" d="m0 0h3l-1 13-3 20-1-2-4-2-1-6h-2l-1-4v-3l-1-2-10-1-1 2-2-2 21-12z" fill="#10528F"/>
<path transform="translate(643,397)" d="m0 0h4v2h-2l1 2v10l-5 10-5 6-4 3-2-1v-17l9-11z" fill="#C49C09"/>
<path transform="translate(1677,368)" d="m0 0 4 4-1 2-1 1-2 11-6 9-6 5h-2l-1-5v-9l3-5z" fill="#C49C09"/>
<path transform="translate(1097,33)" d="m0 0h5l-1 5 3-2-2 4-12 13h-2v-2h-6l-3 1v2h-3l-2-5 11-12 1 3 5-2 3-1 1-3z" fill="#19457F"/>
<path transform="translate(1075,288)" d="m0 0h14l2 3-5 5-3 2-17-1-14 1 4-4 7-4z" fill="#C49E11"/>
<path transform="translate(306,639)" d="m0 0h2l11 25 8 18v3l-2-1-5-3-3-5-2-1-1-4-3-11-1-1v-6l-3-1-1-8-2-1z" fill="#365CA5"/>
<path transform="translate(427,470)" d="m0 0 4 1 1 13 2 2v3h3l1 8-2 4v4l-3 2 1 4v9h-1l-3-18-1-9v-21l-13 10-3 3-2-1 7-7 4-5z" fill="#375BA4"/>
<path transform="translate(424,421)" d="m0 0 2 1-1 4-8 7-8 10-10 8-6 5-5 5-7 5-4 4h-2v2l-5 1v2l-4 2-4-1 14-10 13-10 9-8h2v-2l8-7 13-14z" fill="#365CA5"/>
<path transform="translate(854,342)" d="m0 0 3 2-2 4-2 3h-2l-2 4-12 12-4 6-5 1h-3l2-4 8-8 1-2h2l2-4z" fill="#365CA5"/>
<path transform="translate(696,354)" d="m0 0h2l9 11 7 10 7 12 1 6-3-1-5-9-3-4-6-7-5-6-5-9z" fill="#365DA5"/>
<path transform="translate(1631,340)" d="m0 0 6 1-2 4-11 11-5 3-6-1-4 3 2-5 8-8 9-4 6-1v-2z" fill="#C69D09"/>
<path transform="translate(477,543)" d="m0 0 3 1 8 10 9 9 15 10 4 3-3 1-16-8v-2l-5-2v-2l-4-2-6-6v-2l-3-1-3-8z" fill="#355EA6"/>
<path transform="translate(591,316)" d="m0 0h4v2h8l7 2 4 2 3 5h-7l-11-1-14-5 2-3h3z" fill="#375BA4"/>
<path transform="translate(996,439)" d="m0 0 4 1 14 8 19 7 14 4v2l-12-2-9-2-4-2-7-1v-2l-7-2-3-2h-3l-5-4-2-1z" fill="#355DA6"/>
<path transform="translate(589,369)" d="m0 0h11l4 2v2l-4 3h-2l-2 4-7 7-6 2-1-3h-2l2-4 11-8 8-1v-2l-12-1z" fill="#C49C09"/>
<path transform="translate(692,615)" d="m0 0 5 2 3 5-1 5h10v1l-18 3h-5v-6l3-3 1-6z" fill="#365AA3"/>
<path transform="translate(1244,227)" d="m0 0h1l-1 13-2 7-4-2-8-10-3-4v-2l5 1 5 2 5-1z" fill="#1B3368"/>
<path transform="translate(370,352)" d="m0 0h5l-2 5-3 5 2 4-1 6-5 10-4 2 3-11v-20z" fill="#C29D12"/>
<path transform="translate(1163,443)" d="m0 0 3 1-12 5-3 3-7 1-5 2h-6v2l-13 2-3 2h-10l1-2 23-5 30-10z" fill="#355DA6"/>
<path transform="translate(430,625)" d="m0 0 3 2 8 31-1 4-5-10v-6l-4-4 1-6-1-4-3-3z" fill="#3669A4"/>
<path transform="translate(1611,394)" d="m0 0 4 2 8 6 12 4 11 1 8-1-3 3-9 1h-6l-8-3-7-2v-2l-5-1-5-6z" fill="#345FA7"/>
<path transform="translate(755,585)" d="m0 0h8v2l-10 2-23 3h-7l1-2 24-4z" fill="#355CA5"/>
<path transform="translate(85,255)" d="m0 0 2 1-7 5 1 5 2 4-8-1v-2h-2l-1-7 5-4 2 2 3-1z" fill="#2E66AD"/>
<path transform="translate(1939,678)" d="m0 0 5 1v10l-2 8-3 1z" fill="#1C3267"/>
<path transform="translate(540,440)" d="m0 0h3l4 10v3l-5 2-4-8v-5z" fill="#365CA5"/>
<path transform="translate(1955,677)" d="m0 0h3v21l-3-1-2-11v-7z" fill="#1D356B"/>
<path transform="translate(607,577)" d="m0 0 2 1-1 2h-3v2l-10 1-1 2-15 2-4-1 5-2 21-5z" fill="#365DA5"/>
<path transform="translate(1921,677)" d="m0 0 15 1v2h-6l-1 18-3-1 1-17h-7z" fill="#1E396F"/>
<path transform="translate(602,331)" d="m0 0 12 2 1 1 13 1 2 3h-18l-2 2-3-3v-2l-8-1z" fill="#375BA4"/>
<path transform="translate(566,376)" d="m0 0 3 1-5 2 1 3-7 3-9 9-4-1 5-5 8-7z" fill="#375CA4"/>
<path transform="translate(274,570)" d="m0 0 3 1 6 13v4l-5-1-1-6h-2z" fill="#355DA6"/>
<path transform="translate(261,541)" d="m0 0 3 1 6 13-1 5-4-2-1-5-2-1z" fill="#365DA5"/>
<path transform="translate(364,671)" d="m0 0 2 1 3 3-2 2-7 1-6 3-1-5 1-2z" fill="#3360A8"/>
<path transform="translate(621,315)" d="m0 0 18 5-2 1v2l4 1v2l-11-2v-2h-2v-3l-5-1-2-1z" fill="#375BA4"/>
<path transform="translate(979,211)" d="m0 0 1 3-5 3-4 4-5 2v2h-4v-5l16-8z" fill="#25416E"/>
<path transform="translate(544,585)" d="m0 0h32l-2 3h-26l-4-2z" fill="#345BA3"/>
<path transform="translate(660,544)" d="m0 0 1 2-6 7-6 3-5 6-4 2 1-4 5-5 10-9z" fill="#365CA5"/>
<path transform="translate(396,660)" d="m0 0h5l1 6-7 1-5-2-6 2-3-1z" fill="#365CA5"/>
<path transform="translate(537,408)" d="m0 0h1l2 6v3l-2 5h-2l-1 10-2-2 1-13z" fill="#365DA5"/>
<path transform="translate(1125,343)" d="m0 0h2v2h-2l-2 4-4 5-6 5-5 5-3 4-2-1 7-8z" fill="#365DA5"/>
<path transform="translate(681,232)" d="m0 0h3v11l-2-1v-3h-5l-2-4z" fill="#365BA4"/>
<path transform="translate(222,452)" d="m0 0h2l5 12-1 3-4-2-1-6h-2z" fill="#365CA5"/>
<path transform="translate(965,407)" d="m0 0h2l8 11-1 3-7-5-2-5z" fill="#355DA6"/>
<path transform="translate(803,150)" d="m0 0h1l1 46-3 1z" fill="#164782"/>
<path transform="translate(375,304)" d="m0 0 1 2 4 1 5 3 1 5v3l-8-7v-3l-3 1z" fill="#2E66AD"/>
<path transform="translate(376,667)" d="m0 0 4 1-1 2-6 1-1 5-4-1v-2l-3 1 2-4z" fill="#355EA6"/>
<path transform="translate(341,419)" d="m0 0h6l1 5-7 1v3h-3l1-7h2z" fill="#2E67AE"/>
<path transform="translate(127,355)" d="m0 0 2 1 1 7-4 2h-3l1-7z" fill="#2E66AD"/>
<path transform="translate(424,600)" d="m0 0h2l3 13h-3l-4-9z" fill="#3D6A9D"/>
<path transform="translate(728,415)" d="m0 0 2 1 2 8v7h-2l-2-7-1-7z" fill="#355DA6"/>
<path transform="translate(1592,349)" d="m0 0 2 1-11 9-7 8h-2l2-4 10-10z" fill="#365CA5"/>
<path transform="translate(1947,687)" d="m0 0 3 1 1 9h-5z" fill="#1E376E"/>
<path transform="translate(1651,406)" d="m0 0 3 1-7 3h-11l-2-1v-2h12z" fill="#365DA5"/>
<path transform="translate(436,647)" d="m0 0h2l3 11-1 4-5-10z" fill="#3A6A9F"/>
<path transform="translate(364,671)" d="m0 0 2 1 3 3-2 2h-6v-2l-4-2z" fill="#3163AA"/>
<path transform="translate(1163,443)" d="m0 0 3 1-12 5-3 3-4-1v-2z" fill="#335AA2"/>
<path transform="translate(529,581)" d="m0 0 11 2 6 1-2 2-10-1-5-2z" fill="#355DA6"/>
<path transform="translate(72,221)" d="m0 0 1 3-2 3-5 1-3 2-3-2z" fill="#3B6B9F"/>
<path transform="translate(345,677)" d="m0 0 3 1-4 4-2 1-8-1 2-2z" fill="#355DA6"/>
<path transform="translate(983,430)" d="m0 0 5 1 6 5v2h-3v-2l-4-1z" fill="#345EA7"/>
<path transform="translate(1675,421)" d="m0 0 2 1v5l-6 7-2-1v-2h2l2-4z" fill="#325BA3"/>
<path transform="translate(867,328)" d="m0 0 2 1-12 13h-2v-2h2l2-4z" fill="#345FA7"/>
<path transform="translate(1074,293)" d="m0 0 6 1v2h-16l3-2z" fill="#2E67AE"/>
<path transform="translate(239,489)" d="m0 0 2 1 3 6v5l-2-1-1-4-4-2z" fill="#355DA6"/>
<path transform="translate(430,625)" d="m0 0 3 2 2 9h-2l-2-4-3-3z" fill="#3D6B9C"/>
<path transform="translate(1118,457)" d="m0 0h2l-1 3-2 1h-10l1-2z" fill="#345FA7"/>
<path transform="translate(425,611)" d="m0 0 4 2 1 7-2 1-3-5-1-4z" fill="#2F64AC"/>
<path transform="translate(734,588)" d="m0 0 3 1-7 3h-7l1-2z" fill="#355EA6"/>
<path transform="translate(566,376)" d="m0 0 3 1-5 2 1 3-5 2v-3l4-4z" fill="#365DA5"/>
<path transform="translate(1640,259)" d="m0 0 2 1 1 4v7l-1-2h-2z" fill="#385BA4"/>
</svg>
